<?xml version="1.0" encoding="utf-8"?>
<svg viewBox="0 0 500 500" xmlns="http://www.w3.org/2000/svg">
  <path d="M 243.866 162.272 C 226.987 162.281 210.419 166.542 195.934 174.618 C 181.451 182.694 169.582 194.27 161.588 208.127 C 153.594 221.983 149.78 237.597 150.544 253.315 C 151.309 269.033 156.617 284.258 165.929 297.387 C 166.508 298.313 167.288 299.12 168.223 299.754 C 169.149 300.396 170.211 300.846 171.331 301.091 C 172.453 301.338 173.617 301.361 174.756 301.172 C 175.886 300.981 176.973 300.578 177.933 299.991 C 178.893 299.398 179.717 298.63 180.354 297.727 C 180.982 296.832 181.416 295.827 181.621 294.766 C 181.825 293.704 181.789 292.619 181.527 291.575 C 181.263 290.529 180.771 289.54 180.091 288.676 C 169.634 273.933 165.42 256.093 168.273 238.618 C 171.128 221.143 180.839 205.276 195.537 194.104 C 210.224 182.924 228.839 177.221 247.782 178.117 C 266.72 179.004 284.636 186.416 298.042 198.917 C 311.456 211.413 319.409 228.104 320.36 245.761 C 321.319 263.41 315.203 280.766 303.208 294.456 C 291.212 308.146 274.196 317.206 255.446 319.866 C 236.697 322.517 217.557 318.598 201.737 308.852 C 200.802 308.274 199.758 307.869 198.663 307.663 C 197.566 307.459 196.436 307.466 195.341 307.663 C 194.244 307.869 193.2 308.274 192.275 308.861 C 191.34 309.437 190.549 310.189 189.929 311.053 C 189.308 311.924 188.884 312.897 188.672 313.927 C 188.458 314.948 188.458 316.002 188.688 317.022 C 188.909 318.045 189.352 319.018 189.979 319.874 C 190.608 320.737 191.416 321.481 192.35 322.05 C 204.508 329.533 218.372 334.268 232.838 335.868 C 247.316 337.459 261.978 335.884 275.683 331.259 C 289.377 326.636 301.729 319.09 311.737 309.223 C 321.752 299.358 329.153 287.442 333.34 274.44 C 337.538 261.43 338.412 247.693 335.889 234.32 C 333.375 220.946 327.53 208.301 318.84 197.406 C 310.147 186.502 298.84 177.65 285.816 171.552 C 272.802 165.457 258.436 162.272 243.866 162.272 Z" style="fill: rgb(206, 167, 88);"/>
  <path d="M 222.629 193.946 C 220.377 193.946 218.21 194.777 216.621 196.265 C 215.025 197.746 214.132 199.765 214.132 201.864 L 214.132 296.881 C 214.132 298.978 215.025 300.997 216.621 302.478 C 218.21 303.967 220.377 304.798 222.629 304.798 C 224.879 304.798 227.038 303.967 228.633 302.478 C 230.223 300.997 231.123 298.978 231.123 296.881 L 231.123 288.961 L 248.114 288.961 L 248.114 296.881 C 248.114 298.978 249.007 300.997 250.604 302.478 C 252.192 303.967 254.359 304.798 256.609 304.798 C 258.861 304.798 261.018 303.967 262.616 302.478 C 264.205 300.997 265.105 298.978 265.105 296.881 L 265.105 287.504 C 269.056 286.23 272.614 284.06 275.444 281.186 C 278.273 278.313 280.296 274.827 281.324 271.042 C 282.35 267.266 282.35 263.299 281.332 259.522 C 280.311 255.738 278.298 252.245 275.469 249.372 C 278.298 246.496 280.311 243.005 281.332 239.228 C 282.35 235.443 282.35 231.484 281.324 227.7 C 280.296 223.915 278.273 220.432 275.444 217.557 C 272.614 214.682 269.056 212.514 265.105 211.239 L 265.105 201.864 C 265.105 199.765 264.205 197.746 262.616 196.265 C 261.018 194.777 258.861 193.946 256.609 193.946 C 254.359 193.946 252.192 194.777 250.604 196.265 C 249.007 197.746 248.114 199.765 248.114 201.864 L 248.114 209.781 L 231.123 209.781 L 231.123 201.864 C 231.123 199.765 230.223 197.746 228.633 196.265 C 227.038 194.777 224.879 193.946 222.629 193.946 Z M 256.609 273.126 L 231.123 273.126 L 231.123 257.289 L 256.609 257.289 C 258.861 257.289 261.018 258.12 262.616 259.61 C 264.205 261.09 265.105 263.11 265.105 265.207 C 265.105 267.306 264.205 269.325 262.616 270.806 C 261.018 272.294 258.861 273.126 256.609 273.126 Z M 256.609 225.617 C 258.861 225.617 261.018 226.449 262.616 227.938 C 264.205 229.418 265.105 231.437 265.105 233.535 C 265.105 235.633 264.205 237.653 262.616 239.134 C 261.018 240.622 258.861 241.452 256.609 241.452 L 231.123 241.452 L 231.123 225.617 L 256.609 225.617 Z" style="fill: rgb(206, 167, 88);"/>
  <path d="M 294.84 257.289 C 299.529 257.289 303.334 253.743 303.334 249.372 C 303.334 245.001 299.529 241.452 294.84 241.452 C 290.14 241.452 286.344 245.001 286.344 249.372 C 286.344 253.743 290.14 257.289 294.84 257.289 Z" style="fill: rgb(206, 167, 88);"/>
  <path d="M 192.894 257.289 C 197.583 257.289 201.389 253.743 201.389 249.372 C 201.389 245.001 197.583 241.452 192.894 241.452 C 188.196 241.452 184.399 245.001 184.399 249.372 C 184.399 253.743 188.196 257.289 192.894 257.289 Z" style="fill: rgb(206, 167, 88);"/>
  <path d="M 477.619 184.895 C 478.877 184.191 479.913 183.2 480.634 182.006 C 481.356 180.817 481.74 179.48 481.74 178.109 L 481.74 138.519 C 481.74 137.15 481.356 135.81 480.634 134.624 C 479.913 133.435 478.877 132.439 477.619 131.733 L 435.141 107.98 C 433.816 107.243 432.304 106.847 430.767 106.847 C 429.221 106.847 427.709 107.243 426.392 107.98 L 388.23 129.357 L 294.84 78.549 L 294.84 43.502 C 294.84 42.14 294.456 40.795 293.735 39.607 C 293.013 38.42 291.977 37.421 290.719 36.717 L 273.668 27.216 C 271.732 26.139 269.421 25.815 267.238 26.321 C 265.046 26.835 263.167 28.133 262.013 29.931 C 260.848 31.736 260.51 33.891 261.053 35.925 C 261.597 37.961 262.989 39.719 264.927 40.795 L 269.828 43.502 L 243.866 58.024 L 217.905 43.502 L 248.241 26.534 C 250.127 25.433 251.478 23.684 251.996 21.664 C 252.514 19.655 252.159 17.524 251.012 15.743 C 249.865 13.968 248.02 12.678 245.863 12.156 C 243.706 11.641 241.42 11.925 239.492 12.963 L 197.014 36.717 C 195.756 37.421 194.712 38.42 193.991 39.607 C 193.267 40.795 192.894 42.14 192.894 43.502 L 192.894 78.549 L 99.504 129.319 L 61.342 107.98 C 60.017 107.243 58.505 106.847 56.966 106.847 C 55.42 106.847 53.908 107.243 52.591 107.98 L 10.114 131.733 C 8.857 132.439 7.811 133.435 7.089 134.624 C 6.367 135.81 5.994 137.15 5.994 138.519 L 5.994 178.109 C 5.994 179.48 6.367 180.817 7.089 182.006 C 7.811 183.2 8.857 184.191 10.114 184.895 L 48.47 206.344 L 48.47 292.397 L 10.114 313.848 C 8.857 314.553 7.811 315.55 7.089 316.739 C 6.367 317.925 5.994 319.272 5.994 320.633 L 5.994 360.224 C 5.994 361.594 6.367 362.932 7.089 364.12 C 7.811 365.315 8.857 366.306 10.114 367.01 L 52.591 390.763 C 53.908 391.5 55.42 391.896 56.966 391.896 C 58.505 391.896 60.017 391.5 61.342 390.763 L 99.504 369.424 L 192.894 420.195 L 192.894 455.239 C 192.894 456.61 193.267 457.949 193.991 459.136 C 194.712 460.332 195.756 461.321 197.014 462.027 L 239.492 485.779 C 240.809 486.516 242.319 486.913 243.866 486.913 C 245.404 486.913 246.916 486.516 248.241 485.779 L 290.719 462.027 C 291.977 461.321 293.013 460.332 293.735 459.136 C 294.456 457.949 294.84 456.61 294.84 455.239 L 294.84 420.195 L 388.23 369.424 L 426.392 390.803 C 427.683 391.524 429.152 391.92 430.664 391.935 C 432.169 391.951 433.656 391.595 434.963 390.898 C 436.28 390.201 437.368 389.196 438.115 387.984 C 438.872 386.766 439.271 385.38 439.262 383.978 L 439.262 348.869 L 464.748 334.617 L 464.748 355.742 L 458.962 358.973 C 458.004 359.511 457.171 360.216 456.509 361.047 C 455.844 361.885 455.362 362.838 455.089 363.843 C 454.818 364.856 454.766 365.901 454.927 366.931 C 455.097 367.96 455.48 368.949 456.05 369.844 C 456.627 370.732 457.383 371.508 458.284 372.133 C 459.176 372.75 460.194 373.193 461.282 373.447 C 462.362 373.701 463.482 373.748 464.587 373.598 C 465.69 373.439 466.753 373.092 467.714 372.552 L 477.619 367.01 C 478.877 366.306 479.913 365.315 480.634 364.12 C 481.356 362.932 481.74 361.594 481.74 360.224 L 481.74 320.633 C 481.74 319.272 481.356 317.925 480.634 316.739 C 479.913 315.55 478.877 314.553 477.619 313.848 L 439.262 292.397 L 439.262 206.344 L 477.619 184.895 Z M 243.866 430.171 L 217.905 415.65 L 243.866 401.129 L 269.828 415.65 L 243.866 430.171 Z M 56.966 335.156 L 31.003 320.633 L 56.966 306.112 L 82.928 320.633 L 56.966 335.156 Z M 201.33 92.294 L 235.372 111.329 L 235.372 131.005 C 214.718 132.304 194.72 138.274 177.109 148.4 C 159.49 158.521 144.792 172.494 134.275 189.107 L 107.939 173.73 L 107.939 143.063 L 201.33 92.294 Z M 286.403 92.294 L 379.793 143.063 L 379.793 173.715 L 353.458 189.035 C 351.113 185.339 348.557 181.767 345.813 178.322 C 344.462 176.645 342.447 175.536 340.214 175.236 C 337.987 174.942 335.719 175.479 333.918 176.739 C 332.117 177.998 330.92 179.875 330.605 181.959 C 330.282 184.032 330.869 186.146 332.219 187.825 C 346.585 205.545 354.342 227.162 354.307 249.372 C 354.307 269.729 347.825 289.635 335.693 306.555 C 323.554 323.485 306.308 336.683 286.131 344.468 C 265.947 352.258 243.739 354.301 222.323 350.326 C 200.897 346.359 181.212 336.557 165.768 322.154 C 150.324 307.76 139.805 289.421 135.55 269.451 C 131.286 249.482 133.469 228.793 141.828 209.98 C 150.188 191.174 164.341 175.093 182.503 163.785 C 200.668 152.47 222.025 146.437 243.866 146.437 C 267.697 146.414 290.88 153.643 309.902 167.024 C 310.794 167.65 311.804 168.102 312.892 168.362 C 313.972 168.615 315.092 168.678 316.196 168.529 C 317.301 168.378 318.363 168.03 319.324 167.507 C 320.283 166.976 321.125 166.272 321.795 165.441 C 322.466 164.609 322.95 163.658 323.223 162.654 C 323.504 161.649 323.563 160.602 323.409 159.572 C 323.248 158.544 322.875 157.555 322.306 156.66 C 321.736 155.765 320.989 154.98 320.097 154.355 C 300.446 140.562 276.905 132.414 252.362 130.917 L 252.362 111.329 L 286.403 92.294 Z M 422.271 166.755 L 422.271 187.88 L 396.785 173.629 L 396.785 152.501 L 422.271 166.755 Z M 99.35 311.345 L 65.463 292.397 L 65.463 206.344 L 99.35 187.397 L 126.443 203.233 C 119.833 217.833 116.434 233.527 116.434 249.372 C 116.434 265.223 119.833 280.909 126.443 295.51 L 99.35 311.345 Z M 235.372 92.865 L 209.885 78.612 L 209.885 57.487 L 235.372 71.738 L 235.372 92.865 Z M 90.948 173.629 L 65.463 187.88 L 65.463 166.755 L 90.948 152.501 L 90.948 173.629 Z M 107.939 325.012 L 134.275 309.636 C 144.792 326.247 159.49 340.223 177.109 350.342 C 194.72 360.469 214.718 366.439 235.372 367.738 L 235.372 387.414 L 201.33 406.417 L 107.939 355.679 L 107.939 325.012 Z M 286.403 406.45 L 252.362 387.414 L 252.362 367.738 C 273.006 366.439 293.003 360.469 310.624 350.342 C 328.235 340.223 342.94 326.247 353.458 309.636 L 379.793 325.012 L 379.793 355.679 L 286.403 406.45 Z M 361.29 295.51 C 367.908 280.893 371.306 265.191 371.298 249.332 C 371.281 233.464 367.858 217.771 361.223 203.161 L 388.408 187.389 L 422.271 206.344 L 422.271 292.397 L 388.383 311.345 L 361.29 295.51 Z M 439.262 187.88 L 439.262 166.755 L 464.748 152.501 L 464.748 173.629 L 439.262 187.88 Z M 430.767 123.997 L 456.729 138.519 L 430.767 153.041 L 404.804 138.519 L 430.767 123.997 Z M 277.849 57.487 L 277.849 78.612 L 252.362 92.865 L 252.362 71.738 L 277.849 57.487 Z M 56.966 123.997 L 82.928 138.519 L 56.966 153.041 L 31.003 138.519 L 56.966 123.997 Z M 22.984 152.501 L 48.47 166.755 L 48.47 187.88 L 22.984 173.629 L 22.984 152.501 Z M 22.984 334.617 L 48.47 348.869 L 48.47 369.995 L 22.984 355.742 L 22.984 334.617 Z M 65.463 369.995 L 65.463 348.869 L 90.948 334.617 L 90.948 355.742 L 65.463 369.995 Z M 209.885 429.634 L 235.372 443.885 L 235.372 465.012 L 209.885 450.759 L 209.885 429.634 Z M 252.362 465.012 L 252.362 443.885 L 277.849 429.634 L 277.849 450.759 L 252.362 465.012 Z M 396.785 355.742 L 396.785 334.617 L 422.271 348.869 L 422.271 369.995 L 396.785 355.742 Z M 430.767 335.156 L 404.804 320.633 L 430.767 306.112 L 456.738 320.633 L 430.767 335.156 Z" style="fill: rgb(206, 167, 88);"/>
</svg>